<?xml version="1.0" encoding="UTF-8"?><svg id="a" xmlns="http://www.w3.org/2000/svg" xmlns:xlink="http://www.w3.org/1999/xlink" viewBox="0 0 111.6 39"><defs><style>.c{fill:none;}.d{fill:#fa500f;}.e{fill:#ffd800;}.f{fill:#ff8205;}.g{fill:#fff;}.h{clip-path:url(#b);}.i{letter-spacing:-.04em;}.j{fill:#ffaf00;}.k{font-family:Arial-BoldMT, Arial;font-size:14px;font-weight:700;}.l{fill:#e10500;}</style><clipPath id="b"><rect class="c" x="5.94" y="9.88" width="27.12" height="19.37"/></clipPath></defs><rect class="g" width="39" height="39"/><path class="e" d="M39,0H0v8.53h39V0Z"/><path class="j" d="M39,8.53H0v7.46h39v-7.46Z"/><path class="f" d="M39,16H0v7.77h39v-7.77Z"/><path class="d" d="M39,23.77H0v7.62h39v-7.62Z"/><path class="l" d="M39,31.38H0v7.62h39v-7.62Z"/><g class="h"><path class="g" d="M13.69,9.88h-3.87v3.87h3.87v-3.87Z"/><path class="g" d="M29.18,9.88h-3.87v3.87h3.87v-3.87Z"/><path class="g" d="M17.56,13.75h-7.75v3.87h7.75v-3.87Z"/><path class="g" d="M29.18,13.75h-7.75v3.87h7.75v-3.87Z"/><path class="g" d="M29.19,17.63H9.82v3.87h19.37v-3.87Z"/><path class="g" d="M13.69,21.5h-3.87v3.87h3.87v-3.87Z"/><path class="g" d="M21.44,21.5h-3.87v3.87h3.87v-3.87Z"/><path class="g" d="M29.18,21.5h-3.87v3.87h3.87v-3.87Z"/><path class="g" d="M17.56,25.38H5.94v3.87h11.62v-3.87Z"/><path class="g" d="M33.06,25.38h-11.62v3.87h11.62v-3.87Z"/></g><text class="k" transform="translate(49.11 16)"><tspan x="0" y="0">Mistral</tspan><tspan class="i" x="45.12" y="0"> </tspan><tspan x="48.49" y="0">AI</tspan><tspan x="0" y="16.8">Inference</tspan></text></svg>